<?xml version="1.0" encoding="iso-8859-1"?>
<!-- Generator: Adobe Illustrator 16.0.0, SVG Export Plug-In . SVG Version: 6.00 Build 0)  -->
<!DOCTYPE svg PUBLIC "-//W3C//DTD SVG 1.1//EN" "http://www.w3.org/Graphics/SVG/1.1/DTD/svg11.dtd">
<svg version="1.1" id="Capa_1" xmlns="http://www.w3.org/2000/svg" xmlns:xlink="http://www.w3.org/1999/xlink" x="0px" y="0px"
	 width="45.949px" height="45.949px" viewBox="0 0 45.949 45.949" style="enable-background:new 0 0 45.949 45.949;"
	 xml:space="preserve">
<g>
	<g>
		<path d="M18.971,1.967c-6.018,0-11.316,2.351-14.919,6.618c-3.22,3.814-4.62,8.623-3.842,13.193
			c0.364,2.136,1.042,5.283,2.726,7.935c0.519,0.818,0.81,1.758,0.84,2.72l0.278,8.856c0.029,0.968,0.57,1.863,1.413,2.337
			c0.415,0.233,0.886,0.356,1.363,0.356c0.478,0,0.95-0.123,1.366-0.359l7.646-4.315c1.011-0.571,2.189-0.804,3.348-0.653
			c1.279,0.166,2.584,0.25,3.879,0.25c12.616,0,22.88-7.795,22.88-17.378C45.948,12.106,37.506,1.967,18.971,1.967z M23.263,35.898
			c-2.996-0.129-8.881-0.613-11.068-2.67c-0.828-0.816-1.745,0.157-1.202,0.875c0.627,0.858,2.822,2.133,3.721,2.432
			c-0.915,0.461,1.821-1.063-7.673,4.297l-0.267-8.493c-0.137-4.335-2.313-3.468-3.607-11.063c-0.62-3.643,0.568-7.664,3.178-10.755
			c3.023-3.581,7.508-5.553,12.627-5.553c16.474,0,23.978,8.584,23.978,16.56C42.948,29.406,34.135,35.82,23.263,35.898z"/>
		<path d="M15.313,6.957c-4.091,1.809-7.812,4.838-8.796,9.976c-0.359,1.874-0.277,1.824-0.24,3.794
			c0.038,1.489,2.39,1.561,2.262-0.249c0,0-0.084-1.105-0.106-1.393c-0.168-3.957,2.234-7.346,5.468-9.741
			c1.901-1.38,2.753-1.369,2.426-2.131C16.177,6.867,15.856,6.723,15.313,6.957z"/>
		<path d="M9.073,23.725c-0.323-1.672-3.941-1.29-1.212,2.864c0.818,1.244,2.73,0.015,1.901-1.249
			C9.241,24.546,9.074,23.732,9.073,23.725z"/>
	</g>
</g>
<g>
</g>
<g>
</g>
<g>
</g>
<g>
</g>
<g>
</g>
<g>
</g>
<g>
</g>
<g>
</g>
<g>
</g>
<g>
</g>
<g>
</g>
<g>
</g>
<g>
</g>
<g>
</g>
<g>
</g>
</svg>
